<svg viewBox="7 7 51 51" xmlns="http://www.w3.org/2000/svg"><path d="M28.674 36.114c-.161-.107-.326-.221-.499-.339a5.624 5.624 0 00-1.584-.242h-.066c-2.514 0-4.718 1.521-4.718 3.257 0 1.889 1.889 3.367 4.299 3.367 3.179 0 4.79-1.096 4.79-3.256 0-.205-.024-.417-.075-.629-.215-.84-.984-1.363-2.147-2.158zm-1.781-6.588h.002c.601 0 1.108-.237 1.501-.687.616-.702.889-1.854.727-3.077-.285-2.186-1.848-4.006-3.479-4.053l-.065-.002c-.577 0-1.092.238-1.483.686-.607.693-.864 1.791-.705 3.012.286 2.184 1.882 4.071 3.479 4.121h.023z"/><path d="M32 7.174C18.311 7.174 7.174 18.311 7.174 32S18.311 56.826 32 56.826 56.826 45.689 56.826 32 45.689 7.174 32 7.174zm-2.862 36.915c-.938.271-1.953.408-3.018.408-1.186 0-2.326-.136-3.389-.405-2.057-.519-3.577-1.503-4.287-2.771a3.524 3.524 0 01-.461-1.738c0-.623.149-1.255.443-1.881 1.127-2.402 4.098-4.017 7.389-4.017h.094a2.926 2.926 0 01-.396-1.471c0-.255.034-.515.102-.78-3.452-.078-6.035-2.606-6.035-5.939 0-2.353 1.881-4.646 4.571-5.572a7.458 7.458 0 012.433-.42h7.382a.579.579 0 01.34 1.05l-1.651 1.195a.585.585 0 01-.34.108h-.592c.763.915 1.211 2.22 1.211 3.685 0 1.617-.819 3.146-2.307 4.311-1.15.896-1.195 1.143-1.195 1.654.014.281.815 1.198 1.699 1.823 2.058 1.456 2.825 2.885 2.825 5.269-.001 2.489-1.892 4.641-4.818 5.491zm16.671-12.662c0 .32-.261.58-.58.58h-4.196v4.197a.58.58 0 01-.578.58H39.26a.58.58 0 01-.582-.58v-4.197h-4.194a.58.58 0 01-.58-.58v-1.193c0-.32.26-.582.58-.582h4.194v-4.193c0-.321.26-.58.582-.58h1.195a.58.58 0 01.578.58v4.193h4.196c.319 0 .58.26.58.58v1.195z"/></svg>