<svg xmlns="http://www.w3.org/2000/svg" xmlns:xlink="http://www.w3.org/1999/xlink" viewBox="7 7 50 50"><path d="M31.999 36.97A4.978 4.978 0 0036.971 32a4.948 4.948 0 00-.941-2.897A4.967 4.967 0 0032 27.03c-1.659 0-3.126.82-4.031 2.072a4.947 4.947 0 00-.94 2.897 4.976 4.976 0 004.97 4.971zm10.853-11.05v-4.786l-.624.002-4.164.013.017 4.787z"/><path d="M32 7.174C18.311 7.174 7.174 18.311 7.174 32S18.311 56.826 32 56.826 56.826 45.689 56.826 32 45.689 7.174 32 7.174zm14.119 21.929v11.56a5.463 5.463 0 01-5.457 5.458H23.338a5.462 5.462 0 01-5.457-5.458V23.339a5.462 5.462 0 015.457-5.457h17.323a5.463 5.463 0 015.458 5.457v5.764z"/><path d="M39.722 32c0 4.257-3.463 7.723-7.722 7.723S24.278 36.257 24.278 32a7.67 7.67 0 01.568-2.897h-4.215v11.56a2.706 2.706 0 002.706 2.704H40.66a2.706 2.706 0 002.706-2.704v-11.56H39.15c.365.894.572 1.873.572 2.897z"/><use xlink:href="#icon" width="40%" height="40%"/></svg>